<svg id="Layer_1" data-name="Layer 1" xmlns="http://www.w3.org/2000/svg" viewBox="0 0 500 500"><defs><style>.cls-1{fill:none;stroke:#be1e2d;stroke-miterlimit:10;stroke-width:3px;}.cls-2{font-size:41.14px;}.cls-2,.cls-3{fill:#231f20;font-family:ARDESTINE, AR DESTINE;}.cls-3{font-size:14.8px;}.cls-4{fill:#ed1c24;}</style></defs><title>Artboard 1 copy 4</title><path class="cls-1" d="M222.6,285.25H183.77V208.32H420.88v76.93H365.37"/><text class="cls-2" transform="translate(195.53 258.37)">zzimbafrica</text><text class="cls-3" transform="translate(249.19 287.95) scale(1.22 1)">Lorem ipsum</text><polygon class="cls-4" points="104.75 220.91 112.08 233.93 127.54 234.33 135.27 220.91 127.54 207.48 111.67 207.07 104.75 220.91"/><polygon class="cls-4" points="130.79 235.15 138.12 248.17 153.58 248.58 161.31 235.15 153.58 221.72 137.71 221.31 130.79 235.15"/><polygon class="cls-4" points="105.16 250.61 112.48 263.63 127.95 264.04 135.68 250.61 127.95 237.18 112.08 236.78 105.16 250.61"/><polygon class="cls-4" points="130.39 265.26 137.71 278.28 153.18 278.69 160.91 265.26 153.18 251.83 137.31 251.42 130.39 265.26"/><polygon class="cls-4" points="105.16 279.5 112.48 292.52 127.95 292.93 135.68 279.5 127.95 266.07 112.08 265.67 105.16 279.5"/><polygon class="cls-4" points="79.12 265.26 86.44 278.28 101.9 278.69 109.64 265.26 101.9 251.83 86.03 251.42 79.12 265.26"/><polygon class="cls-4" points="79.53 235.15 86.85 248.17 102.31 248.58 110.04 235.15 102.31 221.72 86.44 221.31 79.53 235.15"/></svg>